<svg xmlns="http://www.w3.org/2000/svg" xml:space="preserve" viewBox="0 0 1024 1024">
  <path fill="#feffff" d="M472 1025H1V1h1024v1024zm177-630h-41v-45c1-19-17-36-35-35H452c-16 0-30 11-33 26l-1 27v27h-86c-21 0-38 17-38 38v101h174v-27q-1-18 17-17h52c16 0 22 3 21 21v23h174V431c-1-20-18-36-39-36zM497 608h-8c-19 1-22-6-21-20v-34H294v117c0 24 17 40 40 40h357c24 0 41-16 41-41V554H558v40q0 14-15 14zm-20-95v78q-1 8 7 7h56q8 1 7-7v-84q0-7-7-7h-56q-7 0-7 7z"/>
  <path fill="#010101" d="M649 395h44c21 0 38 16 39 36v103H558v-23c1-18-5-21-21-21h-52q-18-1-17 17v27H294V433c0-21 17-38 38-38h86v-27l1-27c3-15 17-26 33-26h121c18-1 36 16 35 35v45zm-137 0h63v-38q-1-8-9-8H460q-9 0-9 10v36zm-14 213h45q15 0 15-14v-40h174v116c0 25-17 41-41 41H334c-23 0-40-16-40-40V554h174v34c-1 14 2 21 21 20z"/>
  <path fill="#070707" d="M478 512v-5q0-7 7-7h56q7 0 7 7v84q1 8-7 7h-56q-8 1-7-7zm54 75-2-5v-64l2-7h-14q3 17 3 33h-16c1-11-2-22 2-33h-13l2 7v59l-2 10h14c-3-4-5-29-2-38h14v30l-2 8z"/>
  <path fill="#fefefe" d="M511 395h-60v-36q0-9 9-10h106q8 0 9 8v38z"/>
  <path fill="#f5f6f6" d="M532 587h-14l2-8v-30h-14c-3 9-1 34 2 38h-14l2-10v-59l-2-7h13c-4 11-1 22-2 33h16q0-16-3-33h14l-2 7v64z"/>
</svg>
