<svg xmlns="http://www.w3.org/2000/svg" xml:space="preserve" viewBox="0 0 1024 1024">
  <path fill="#feffff" d="M472 1025H1V1h1024v1024zm176.5-629.874h-40.426c0-15.259-.283-30.052.07-44.83.459-19.153-16.702-35.852-35.39-35.556-40.318.64-80.654.133-120.982.14-15.331.003-30.039 11.295-32.653 26.402-1.516 8.758-.934 17.897-1.084 26.867-.149 8.936-.032 17.877-.032 27.054h-6.083c-26.497-.023-52.993-.068-79.49-.064-21.747.003-38.357 16.461-38.407 38.164-.073 31.996-.037 63.991-.047 95.987v4.528H468.07c0-9.246-.007-18.069.002-26.891.013-12.76 4.035-16.815 16.59-16.803 17.497.017 35.007.412 52.49-.103 15.843-.467 21.638 2.763 20.735 20.842-.385 7.731-.064 15.497-.064 22.987h174.005c0-34.56.5-68.714-.187-102.844-.413-20.505-18.032-36.016-38.648-35.955-14.498.043-28.996.051-44.494.075m-151 212.973c-2.999 0-6.009-.165-8.995.03-18.329 1.197-21.126-5.893-20.519-20.538.46-11.088.091-22.21.091-33.372h-174.09v2.702c0 38.16-.066 76.318.023 114.477.055 23.427 16.67 39.707 40.148 39.705q178.214-.01 356.427.02c24.8.004 41.327-16.334 41.356-41.219.044-37.158-.044-74.317-.09-111.476-.001-1.445-.147-2.889-.215-4.14H557.874c0 13.372.007 26.359-.003 39.346-.007 9.699-4.564 14.353-14.38 14.412-14.997.09-29.994.041-45.99.053m-19.468-95.528c.032 26.15.059 52.298.1 78.447.01 5.955 1.075 7.06 6.904 7.07q27.981.044 55.962.034c5.652-.002 6.802-1.108 6.806-6.63q.03-42.222.004-84.443c-.004-5.402-1.659-7.003-7.227-7.016-18.488-.042-36.975-.067-55.463-.06-5.474.001-7.036 1.625-7.095 7.13-.016 1.499.005 2.998.01 5.468"/>
  <path fill="#010101" d="M649 395.126c14.998-.024 29.496-.032 43.994-.075 20.616-.061 38.235 15.45 38.648 35.955.688 34.13.187 68.284.187 102.844H557.824c0-7.49-.321-15.256.064-22.987.903-18.079-4.892-21.309-20.736-20.842-17.482.515-34.992.12-52.49.103-12.554-.012-16.576 4.044-16.59 16.803-.008 8.822 0 17.645 0 26.891H293.975v-4.528c.01-31.996-.026-63.991.047-95.987.05-21.703 16.66-38.16 38.407-38.164 26.497-.004 52.993.04 79.49.064h6.083c0-9.177-.117-18.118.032-27.054.15-8.97-.432-18.11 1.084-26.867 2.614-15.107 17.322-26.4 32.653-26.402 40.328-.007 80.664.5 120.981-.14 18.69-.296 35.85 16.403 35.392 35.555-.354 14.779-.071 29.572-.071 44.83zm-137.5.063h63.629c0-12.984.138-25.44-.067-37.89-.084-5.068-3.933-8.316-9.341-8.326-35.152-.06-70.303-.086-105.455-.04-5.932.008-9.4 3.769-9.449 9.833-.042 5.33.03 10.662.036 15.993.009 6.756.002 13.513.002 20.43zM498 608.098c15.497-.01 30.494.038 45.49-.052 9.817-.06 14.374-4.713 14.381-14.412.01-12.987.003-25.974.003-39.346h173.762c.068 1.251.214 2.695.216 4.14.045 37.159.133 74.318.09 111.476-.03 24.885-16.557 41.223-41.357 41.219q-178.214-.03-356.427-.02c-23.478.002-40.093-16.278-40.148-39.705-.089-38.159-.023-76.318-.023-114.477v-2.702h174.09c0 11.161.369 22.284-.09 33.372-.608 14.645 2.19 21.735 20.518 20.538 2.986-.195 5.996-.03 9.495-.03"/>
  <path fill="#070707" d="M478.033 512.086c-.004-1.985-.025-3.484-.009-4.983.06-5.505 1.621-7.129 7.095-7.13 18.488-.007 36.975.018 55.463.06 5.568.013 7.223 1.614 7.227 7.016q.026 42.221-.004 84.442c-.004 5.523-1.154 6.63-6.806 6.63q-27.981.011-55.962-.034c-5.83-.01-6.894-1.114-6.904-7.069-.041-26.149-.068-52.298-.1-78.932m54.41 74.886c-.809-1.819-2.304-3.63-2.324-5.46-.237-21.128-.31-42.259-.24-63.389.008-2.357 1.167-4.71 1.808-7.123h-13.273c2.923 10.712 1.4 21.686 2.196 32.582h-15.912c1.01-11.07-1.252-22.043 2.567-32.502h-13.212c.568 2.508 1.516 4.782 1.532 7.063.14 19.473.19 38.947.06 58.42-.024 3.483-1 6.96-1.507 10.249h13.694c-2.967-3.57-4.395-29.275-2.305-37.999h14.546c0 10.187.134 19.986-.085 29.777-.063 2.823-1.145 5.624-1.812 8.676 3.879 0 8.672 0 14.268-.294"/>
  <path fill="#fefefe" d="M511 395.188h-60.145c0-6.917.007-13.674-.002-20.43-.006-5.331-.078-10.662-.036-15.993.049-6.064 3.517-9.825 9.45-9.833 35.15-.046 70.302-.02 105.454.04 5.408.01 9.257 3.258 9.34 8.325.206 12.45.068 24.907.068 37.891z"/>
  <path fill="#f5f6f6" d="M532.043 587.12c-5.195.146-9.988.146-13.867.146.667-3.052 1.749-5.853 1.812-8.676.22-9.791.085-19.59.085-29.777-4.724 0-9.635 0-14.549-.002-2.087 8.726-.659 34.43 2.308 38h-13.694c.507-3.288 1.483-6.765 1.506-10.249.13-19.472.081-38.946-.059-58.419-.016-2.28-.964-4.555-1.532-7.063h13.212c-3.819 10.46-1.557 21.433-2.567 32.502h15.912c-.796-10.896.727-21.87-2.196-32.582h13.273c-.64 2.413-1.8 4.766-1.807 7.123-.07 21.13.002 42.261.239 63.39.02 1.828 1.515 3.64 1.924 5.606"/>
</svg>
