<svg version="1.1" id="Layer_1" xmlns="http://www.w3.org/2000/svg" xmlns:xlink="http://www.w3.org/1999/xlink" x="0px" y="0px"
	 width="100%" viewBox="0 0 1024 1024" enable-background="new 0 0 1024 1024" xml:space="preserve">
<path fill="#FEFFFF" opacity="1.000000" stroke="none" 
	d="
M472.000000,1025.000000 
	C314.666656,1025.000000 157.833328,1025.000000 1.000000,1025.000000 
	C1.000000,683.666687 1.000000,342.333344 1.000000,1.000000 
	C342.333344,1.000000 683.666687,1.000000 1025.000000,1.000000 
	C1025.000000,342.333344 1025.000000,683.666687 1025.000000,1025.000000 
	C840.833313,1025.000000 656.666687,1025.000000 472.000000,1025.000000 
M648.500000,395.125671 
	C635.215576,395.125671 621.931152,395.125671 608.074036,395.125671 
	C608.074036,379.867004 607.791077,365.073517 608.144531,350.295258 
	C608.602600,331.142700 591.442200,314.443634 572.753418,314.740387 
	C532.435913,315.380615 492.100494,314.873230 451.772400,314.880066 
	C436.440979,314.882690 421.733276,326.175079 419.118927,341.282166 
	C417.603394,350.039825 418.185150,359.178558 418.035461,368.149323 
	C417.886353,377.085236 418.002777,386.025574 418.002777,395.203033 
	C415.551910,395.203033 413.735870,395.204437 411.919861,395.202850 
	C385.423340,395.179718 358.926819,395.135345 332.430298,395.139221 
	C310.683167,395.142395 294.072937,411.600281 294.023285,433.302765 
	C293.950043,465.298523 293.986023,497.294464 293.975616,529.290344 
	C293.975128,530.879028 293.975555,532.467651 293.975555,533.818359 
	C352.438904,533.818359 410.166229,533.818359 468.071136,533.818359 
	C468.071136,524.571777 468.063934,515.749329 468.072815,506.926819 
	C468.085693,494.167511 472.108490,490.112152 484.662659,490.123993 
	C502.160400,490.140533 519.669922,490.536041 537.152405,490.021088 
	C552.996338,489.554382 558.790894,492.784088 557.888489,510.863373 
	C557.502563,518.593994 557.823914,526.359924 557.823914,533.849731 
	C616.209290,533.849731 673.929993,533.849731 731.829468,533.849731 
	C731.829468,499.290253 732.329590,465.136169 731.642029,431.005981 
	C731.228943,410.500641 713.609680,394.989532 692.994202,395.050629 
	C678.496216,395.093628 663.998047,395.102051 648.500000,395.125671 
M497.500336,608.098877 
	C494.501129,608.099915 491.491089,607.934387 488.504517,608.129333 
	C470.176483,609.325562 467.379120,602.235596 467.986053,587.590942 
	C468.445618,576.502808 468.077087,565.380371 468.077087,554.218872 
	C409.731232,554.218872 352.013214,554.218872 293.987457,554.218872 
	C293.987457,555.312378 293.987457,556.116882 293.987457,556.921387 
	C293.987000,595.080261 293.921356,633.239197 294.010101,671.397888 
	C294.064606,694.824646 310.680298,711.104675 334.157806,711.103394 
	C452.966949,711.096741 571.776123,711.101868 690.585266,711.122803 
	C715.384644,711.127136 731.912170,694.788940 731.941467,669.904297 
	C731.985229,632.745544 731.897339,595.586670 731.851501,558.427856 
	C731.849731,556.983398 731.704102,555.539062 731.635986,554.288269 
	C673.513672,554.288269 615.782593,554.288269 557.873840,554.288269 
	C557.873840,567.660034 557.880981,580.647034 557.871460,593.633972 
	C557.864319,603.332581 553.306641,607.986755 543.490601,608.045654 
	C528.494263,608.135742 513.497009,608.087158 497.500336,608.098877 
M478.033447,512.571045 
	C478.065399,538.720154 478.091827,564.869263 478.133484,591.018372 
	C478.142975,596.973083 479.207550,598.077881 485.036621,598.087463 
	C503.690704,598.118042 522.344849,598.127930 540.998962,598.121887 
	C546.651245,598.120056 547.801025,597.013550 547.804871,591.491089 
	C547.824585,563.343628 547.826172,535.196167 547.808716,507.048676 
	C547.805359,501.646606 546.150024,500.046082 540.581848,500.033264 
	C522.094421,499.990601 503.606812,499.965973 485.119293,499.972260 
	C479.645477,499.974152 478.083282,501.598419 478.024261,507.103088 
	C478.008179,508.601868 478.029144,510.101044 478.033447,512.571045 
z"/>
<path fill="#010101" opacity="1.000000" stroke="none" 
	d="
M649.000000,395.125793 
	C663.998047,395.102051 678.496216,395.093628 692.994202,395.050629 
	C713.609680,394.989532 731.228943,410.500641 731.642029,431.005981 
	C732.329590,465.136169 731.829468,499.290253 731.829468,533.849731 
	C673.929993,533.849731 616.209290,533.849731 557.823914,533.849731 
	C557.823914,526.359924 557.502563,518.593994 557.888489,510.863373 
	C558.790894,492.784088 552.996338,489.554382 537.152405,490.021088 
	C519.669922,490.536041 502.160400,490.140533 484.662659,490.123993 
	C472.108490,490.112152 468.085693,494.167511 468.072815,506.926819 
	C468.063934,515.749329 468.071136,524.571777 468.071136,533.818359 
	C410.166229,533.818359 352.438904,533.818359 293.975555,533.818359 
	C293.975555,532.467651 293.975128,530.879028 293.975616,529.290344 
	C293.986023,497.294464 293.950043,465.298523 294.023285,433.302765 
	C294.072937,411.600281 310.683167,395.142395 332.430298,395.139221 
	C358.926819,395.135345 385.423340,395.179718 411.919861,395.202850 
	C413.735870,395.204437 415.551910,395.203033 418.002777,395.203033 
	C418.002777,386.025574 417.886353,377.085236 418.035461,368.149323 
	C418.185150,359.178558 417.603394,350.039825 419.118927,341.282166 
	C421.733276,326.175079 436.440979,314.882690 451.772400,314.880066 
	C492.100494,314.873230 532.435913,315.380615 572.753418,314.740387 
	C591.442200,314.443634 608.602600,331.142700 608.144531,350.295258 
	C607.791077,365.073517 608.074036,379.867004 608.074036,395.125671 
	C621.931152,395.125671 635.215576,395.125671 649.000000,395.125793 
M511.499908,395.188110 
	C532.604004,395.188110 553.708130,395.188110 575.128784,395.188110 
	C575.128784,382.203766 575.267151,369.747772 575.061523,357.297455 
	C574.977844,352.230316 571.128723,348.981781 565.720520,348.972473 
	C530.569153,348.911957 495.417511,348.885895 460.266052,348.932343 
	C454.334167,348.940186 450.865753,352.700714 450.817352,358.765015 
	C450.774811,364.095520 450.846527,369.426849 450.853149,374.757812 
	C450.861572,381.514313 450.855194,388.270844 450.855194,395.187164 
	C471.205719,395.187164 490.852814,395.187164 511.499908,395.188110 
z"/>
<path fill="#010101" opacity="1.000000" stroke="none" 
	d="
M498.000244,608.098145 
	C513.497009,608.087158 528.494263,608.135742 543.490601,608.045654 
	C553.306641,607.986755 557.864319,603.332581 557.871460,593.633972 
	C557.880981,580.647034 557.873840,567.660034 557.873840,554.288269 
	C615.782593,554.288269 673.513672,554.288269 731.635986,554.288269 
	C731.704102,555.539062 731.849731,556.983398 731.851501,558.427856 
	C731.897339,595.586670 731.985229,632.745544 731.941467,669.904297 
	C731.912170,694.788940 715.384644,711.127136 690.585266,711.122803 
	C571.776123,711.101868 452.966949,711.096741 334.157806,711.103394 
	C310.680298,711.104675 294.064606,694.824646 294.010101,671.397888 
	C293.921356,633.239197 293.987000,595.080261 293.987457,556.921387 
	C293.987457,556.116882 293.987457,555.312378 293.987457,554.218872 
	C352.013214,554.218872 409.731232,554.218872 468.077087,554.218872 
	C468.077087,565.380371 468.445618,576.502808 467.986053,587.590942 
	C467.379120,602.235596 470.176483,609.325562 488.504517,608.129333 
	C491.491089,607.934387 494.501129,608.099915 498.000244,608.098145 
z"/>
<path fill="#070707" opacity="1.000000" stroke="none" 
	d="
M478.033295,512.085571 
	C478.029144,510.101044 478.008179,508.601868 478.024261,507.103088 
	C478.083282,501.598419 479.645477,499.974152 485.119293,499.972260 
	C503.606812,499.965973 522.094421,499.990601 540.581848,500.033264 
	C546.150024,500.046082 547.805359,501.646606 547.808716,507.048676 
	C547.826172,535.196167 547.824585,563.343628 547.804871,591.491089 
	C547.801025,597.013550 546.651245,598.120056 540.998962,598.121887 
	C522.344849,598.127930 503.690704,598.118042 485.036621,598.087463 
	C479.207550,598.077881 478.142975,596.973083 478.133484,591.018372 
	C478.091827,564.869263 478.065399,538.720154 478.033295,512.085571 
M532.443848,586.972473 
	C531.633972,585.152954 530.139282,583.341187 530.118774,581.512817 
	C529.882263,560.384277 529.809387,539.252991 529.879578,518.123108 
	C529.887390,515.766113 531.046143,513.412964 531.686584,510.999756 
	C527.375000,510.999756 522.574768,510.999756 518.413574,510.999756 
	C521.337402,521.712402 519.813904,532.685730 520.609741,543.581787 
	C515.003845,543.581787 510.089874,543.581787 504.698212,543.581787 
	C505.707886,532.512512 503.446381,521.539307 507.265228,511.079712 
	C502.790192,511.079712 498.100739,511.079712 494.053131,511.079712 
	C494.621490,513.588440 495.569122,515.862488 495.585480,518.143188 
	C495.725220,537.615784 495.774780,557.090088 495.644409,576.562500 
	C495.621124,580.045837 494.644592,583.522766 494.137695,586.811768 
	C498.199799,586.811768 502.916656,586.811768 507.832062,586.811768 
	C504.865387,583.241150 503.436523,557.536926 505.526825,548.813171 
	C510.438141,548.813171 515.349426,548.813171 520.072693,548.813171 
	C520.072693,559.000305 520.207397,568.798889 519.988159,578.589600 
	C519.924927,581.413391 518.843323,584.214417 518.176147,587.266113 
	C522.054626,587.266113 526.848145,587.266113 532.443848,586.972473 
z"/>
<path fill="#FEFEFE" opacity="1.000000" stroke="none" 
	d="
M510.999878,395.187622 
	C490.852814,395.187164 471.205719,395.187164 450.855194,395.187164 
	C450.855194,388.270844 450.861572,381.514313 450.853149,374.757812 
	C450.846527,369.426849 450.774811,364.095520 450.817352,358.765015 
	C450.865753,352.700714 454.334167,348.940186 460.266052,348.932343 
	C495.417511,348.885895 530.569153,348.911957 565.720520,348.972473 
	C571.128723,348.981781 574.977844,352.230316 575.061523,357.297455 
	C575.267151,369.747772 575.128784,382.203766 575.128784,395.188110 
	C553.708130,395.188110 532.604004,395.188110 510.999878,395.187622 
z"/>
<path fill="#F5F6F6" opacity="1.000000" stroke="none" 
	d="
M532.042725,587.119263 
	C526.848145,587.266113 522.054626,587.266113 518.176147,587.266113 
	C518.843323,584.214417 519.924927,581.413391 519.988159,578.589600 
	C520.207397,568.798889 520.072693,559.000305 520.072693,548.813171 
	C515.349426,548.813171 510.438141,548.813171 505.524414,548.810669 
	C503.436523,557.536926 504.865387,583.241150 507.832062,586.811768 
	C502.916656,586.811768 498.199799,586.811768 494.137695,586.811768 
	C494.644592,583.522766 495.621124,580.045837 495.644409,576.562500 
	C495.774780,557.090088 495.725220,537.615784 495.585480,518.143188 
	C495.569122,515.862488 494.621490,513.588440 494.053131,511.079712 
	C498.100739,511.079712 502.790192,511.079712 507.265228,511.079712 
	C503.446381,521.539307 505.707886,532.512512 504.698212,543.581787 
	C510.089874,543.581787 515.003845,543.581787 520.609741,543.581787 
	C519.813904,532.685730 521.337402,521.712402 518.413574,510.999756 
	C522.574768,510.999756 527.375000,510.999756 531.686584,510.999756 
	C531.046143,513.412964 529.887390,515.766113 529.879578,518.123108 
	C529.809387,539.252991 529.882263,560.384277 530.118774,581.512817 
	C530.139282,583.341187 531.633972,585.152954 532.042725,587.119263 
z"/>
</svg>